<svg xmlns="http://www.w3.org/2000/svg" style="display:none">
  <symbol id="icon-leaf" viewBox="0 0 24 24" fill="none" stroke="currentColor" stroke-width="1.6">
    <path d="M20 4C12 3 4 8 4 15a5 5 0 0 0 9 3c2.5-4 5-8 7-14Z" />
    <path d="M9 19s-.5-5.5 8-11" />
  </symbol>
  <symbol id="icon-image" viewBox="0 0 24 24" fill="none" stroke="currentColor" stroke-width="1.6">
    <rect x="3" y="5" width="18" height="14" rx="2" />
    <path d="m7 14 3-3 4 4 3-3 3 3" />
    <circle cx="9" cy="9" r="1.4" />
  </symbol>
  <symbol id="icon-play" viewBox="0 0 24 24" fill="currentColor">
    <path d="M8 5v14l10-7z" />
  </symbol>
  <symbol id="icon-link" viewBox="0 0 24 24" fill="none" stroke="currentColor" stroke-width="1.6">
    <path d="M8.5 14.9 7 16.5a4 4 0 0 0 5.7 5.7l2.1-2.1" />
    <path d="M15.5 9.1 17 7.5a4 4 0 0 0-5.7-5.7L9.2 3.9" />
    <path d="m9.5 14.5 5-5" />
  </symbol>
  <symbol id="icon-filter" viewBox="0 0 24 24" fill="none" stroke="currentColor" stroke-width="1.6">
    <path d="M4 6h16" />
    <path d="M7 12h10" />
    <path d="M10 18h4" />
  </symbol>
  <symbol id="icon-search" viewBox="0 0 24 24" fill="none" stroke="currentColor" stroke-width="1.6">
    <circle cx="11" cy="11" r="6" />
    <path d="m16 16 4 4" />
  </symbol>
  <symbol id="icon-sort" viewBox="0 0 24 24" fill="none" stroke="currentColor" stroke-width="1.6">
    <path d="M8 5v14" />
    <path d="M5 8l3-3 3 3" />
    <path d="M16 19V5" />
    <path d="m13 16 3 3 3-3" />
  </symbol>
  <symbol id="icon-close" viewBox="0 0 24 24" fill="none" stroke="currentColor" stroke-width="2">
    <path d="M6 6l12 12M6 18 18 6" />
  </symbol>
</svg>
